<?xml version="1.0" encoding="utf-8"?>
<!-- Generator: Adobe Illustrator 18.0.0, SVG Export Plug-In . SVG Version: 6.00 Build 0)  -->
<!DOCTYPE svg PUBLIC "-//W3C//DTD SVG 1.1//EN" "http://www.w3.org/Graphics/SVG/1.1/DTD/svg11.dtd">
<svg version="1.1" id="Layer_1" xmlns="http://www.w3.org/2000/svg" xmlns:xlink="http://www.w3.org/1999/xlink" x="0px" y="0px"
	 width="1400px" height="1400px" viewBox="0 0 1400 1400" enable-background="new 0 0 1400 1400" xml:space="preserve">
<g>
	<g>
		<path fill="#98E4F9" d="M699,1182.9c-7.2-1.3-243-45.9-325.5-106.6s-137.7-136-165.2-222.4s1.8-353.4,20.2-398.2
			c0,0,12.9-20.9,38.6-37.4s51.5-34.9,51.5-34.9s177.2-137.8,390-170.9c0,0,113.6,8.7,165.1,47.5c51.5,38.9,158,147.3,170,158.4
			c12,11,12.1-27.6,12.1-27.6S906.7,253,860.8,226.3c0,0,145.2,33.9,261,164.4c0,0,36.8,80.9,57,235.3s0,266.5-34.9,329
			c-34.9,62.5-101.1,150.7-141.5,176.4C961.9,1157.2,718.9,1186.4,699,1182.9z"/>
		<path fill="#98E4F9" d="M1186.8,490c0,0,43.4,167.3,30.6,273.9s-37.2,150.7-30.6,145.2c6.7-5.5,47.1-62.5,56.3-187.5
			C1252.3,596.6,1186.8,490,1186.8,490z"/>
		<path fill="#98E4F9" d="M182.6,548.8c0,0-25.5,136-9.1,233.4C173.5,782.2,128.8,652.3,182.6,548.8z"/>
		<path fill="#98E4F9" d="M642.1,192.7c0,0-266.5,95.1-373.1,196.2C268.9,388.9,381.1,222.6,642.1,192.7z"/>
	</g>
	<g>
		<path fill="#32848B" d="M556.8,433.1c0,0-40.4,13.1-48.6,17.3c-8.3,4.2-58.5,34.8-58.5,34.8s29.8,4.7,45.1,5.6
			c15.3,0.9,14.8,0.1,25.5,3.6c10.7,3.5,19,3.8,19,3.8s7.1-21.4,12.5-32.2C557.3,455.2,556.8,433.1,556.8,433.1z"/>
		<path fill="#225E60" d="M537.5,439.5c0,1.5,0,3.3-0.1,5.4c-0.5,9.4,0.2,23.5,0.2,23.5l5.1,19.8c2.5-7,6-16.2,9.1-22.2
			c5.5-10.8,5-32.9,5-32.9S547.9,436,537.5,439.5z"/>
		<path fill="#225E60" d="M543.4,442.9c0,0-12.8,6.3-23.3,11c-10.6,4.7-19.2,14.5-19.2,14.5s24.9-17.5,46.7-21.7L543.4,442.9z"/>
		<path fill="#225E60" d="M547.8,452.6c0,0-12.8,6.3-23.3,11s-19.2,14.5-19.2,14.5s24.9-17.5,46.7-21.7L547.8,452.6z"/>
		<path fill="#225E60" d="M555.6,461.8c0,0-12.8,6.3-23.3,11s-19.2,14.5-19.2,14.5s24.9-17.5,46.7-21.7L555.6,461.8z"/>
		<path fill="#90B8BF" d="M549.3,497c-0.8-1.7-5.6-41.6-6-59.2c-0.4-17.6,10.7-70.9,10.7-70.9s7.2-53,7.8-65.1
			c0.7-12.1,14.6-44.6,17.1-49.1c0,0,5,10.4,7.7,12.4c2.7,2,7.9-11.5,7.9-11.5l3.1-11.5c0,0,7.2-1.3,19,5.1c0,0,41.3,38.9,57,64.5
			c15.7,25.6,39.7,83.1,39.7,83.1l-46.8,142.6C666.4,537.6,564.2,528.2,549.3,497z"/>
		<path fill="#32848B" d="M580.3,389l27.4-22.4c0,0-2.9,18-1.8,23.4c1.1,5.5,4.6,23.9,4.6,23.9s4.1,66.4,6.7,80.7
			c0,0-23.9-36.2-28.4-45.8c-4.5-9.6-15.6-33.3-15.6-33.3L580.3,389z"/>
		<path fill="#32848B" d="M616.5,247.4c-11.9-6.4-19-5.1-19-5.1l-3.1,11.5c0,0-5.2,13.5-7.9,11.5c-2.7-2-7.7-12.4-7.7-12.4
			c-2.5,4.5-16.4,37-17.1,49.1c-0.2,3.2-0.8,9.4-1.7,16.6c12,6.4,28,14.5,35,15.6c11.8,1.9,42.9-7.9,53.5-16
			c4.2-3.2,10.4-10.7,16.3-18.5C646.3,275.4,616.5,247.4,616.5,247.4z"/>
		<path fill="#95D0DD" d="M613.3,266.5c0,0-7.1,7.1-3.7,13.9c3.4,6.7,12,8.4,12,8.4s9.5-3.9,8.2-11.4
			C628.5,270,624.1,264.9,613.3,266.5z"/>
		<path fill="#225E60" d="M618.3,270.4c0,0-2.3,2.3-1.2,4.5c1.1,2.2,3.9,2.7,3.9,2.7s3.1-1.3,2.7-3.7
			C623.2,271.5,621.8,269.9,618.3,270.4z"/>
	</g>
	<path fill="#E5C188" d="M327.5,1058.9c0,0-98.6,30.3-116.8,31.6c-18.1,1.3-41.4,19.5-41.4,19.5s18.3,18.1,34.8,22.3
		s146,11.6,146,11.6l-26.4,12.4c0,0-28.8,15.7-33.8,15.2c-4.9-0.5,60.9,11,115.4,17.6c54.5,6.6,63.8,6.2,63.8,6.2l-1.3,18.6
		c0,0,73.5,0,106.1,0s117.9,0,117.9,0l-8.9-18.6c0,0,46.3-9.6,79-4.6c32.7,5,89.5,4.6,89.5,4.6H973l51.1,11.2c0,0,62.7-10,56.1-11.2
		c-6.6-1.2-52.8-6.2-52.8-6.2s37.9-11.9,97.3-16.7s105.6-28.7,105.6-28.7s-19.8-12.2-36.3-18.1c-16.5-5.9-69.3-11.8-69.3-11.8
		s31.3-8.1,41.2-11c9.9-2.9-14.8-22.6-14.8-22.6L907,1065.3L327.5,1058.9z"/>
	<g>
		<polygon fill="#E8E8E8" points="807.6,398.4 821.4,373.1 837.4,391.3 856.6,624.8 832.1,636.9 816.1,625.2 		"/>
		<path fill="#F4F4F4" d="M824.3,382l-2.8-8.9c0,0,37-4.6,43-5.3c6-0.7,48-2.8,48-2.8l21.7,21.3l-29.5,14.6l-67.2-9.6L824.3,382z"/>
		<path fill="#F4F4F4" d="M821.4,373.1l-5.7-25.2l96.7-6.4v23.5c0,0-34.1,9.4-34.7,9.8C877.2,375.3,821.4,373.1,821.4,373.1z"/>
		<path fill="#F4F4F4" d="M837.4,391.3c0,0,54.7-5.3,64-5c9.2,0.4,32.7,0,32.7,0s5,49.4,5.7,64.4c0.7,14.9,3.6,61.5,3.6,61.5
			l5.3,76.4l-38,27.7c0,0-53.7,11-54,8.5C856.3,622.3,837.4,391.3,837.4,391.3z"/>
		<path fill="#EAEAEA" d="M943.4,512.1c0,0-2.8-46.6-3.6-61.5c-0.7-14.9-5.7-64.4-5.7-64.4s-23.5,0.4-32.7,0c-1.7-0.1-5,0.1-9.2,0.3
			l0,0c0,0,29,6.5,30.4,9.3s15,165.1,15,165.1l2.6,33.7l8.5-6.2L943.4,512.1z"/>
		<polygon fill="#D8D8D8" points="849,628.6 856.6,624.8 837.4,391.3 821.4,373.1 829.1,395.2 		"/>
	</g>
	<g>
		<path fill="#85403A" d="M834.2,415.9c-5.3-39.9-24.5-47.4-24.5-47.4l8.2-107.7l-42.7-5.9l-10.7,108.6c0,0-28.7,13-37.5,42.6
			s-13.2,183.8-13.2,183.8c26.3,75.2,120.5,34.8,120.5,34.8S839.5,455.9,834.2,415.9z"/>
		<polygon fill="#DF4725" points="812.7,328.3 817.9,260.8 775.1,254.9 768.3,324.5 		"/>
		<polygon fill="#DF4725" points="768.3,258.8 823.5,264.4 826.2,249 768.3,241.8 		"/>
		<polygon fill="#CE361D" points="793.4,257.4 809.7,269.8 805.6,327.7 812.7,328.3 817.9,260.8 793.4,257.4 		"/>
		<path fill="#773431" d="M817.9,408.7c1,13.2-5,166.5-7.3,223.3c14-3.2,23.7-7.3,23.7-7.3s5.3-168.8,0-208.8
			c-4.7-35.5-20.5-45.4-23.9-47.1l-0.7-0.3C809.7,368.5,816.6,392.5,817.9,408.7z"/>
		<path fill="#994A47" d="M759.1,375.2c0,0-20,20.2-26,37.6s-10.9,177.7-10.9,177.7l12.2-5.5c0,0,1.8-153,6.3-162.2s18.4-37,18.4-37
			V375.2z"/>
	</g>
	<g>
		<path fill="#FCAA3E" d="M448.7,418.5c0,0-15.4-66.2-18.3-90.9s-9.9-95.8,0-132.4s32.5-34.6,32.5-34.6s20.9,10.9,32.8,28.7
			c0,0,34.6,78.1,50.4,212.9s36,232.8,36,232.8l-73.6-21.2C508.4,613.8,461.1,538.1,448.7,418.5z"/>
		<g>
			<path fill="#F2992F" d="M486,223.9c0,0-3.4-0.6-9.5,0c-6.1,0.6-13.9,7.4-13.9,7.4l-9.5,7.9l-6.1,7.9l-3,12.3L486,223.9z"/>
			<path fill="#F2992F" d="M486,223.9c0,0,2.4,1.7,2.4,11.1c0,9.4-5.8,31.7-5.8,31.7s-7.2,10.5-12.3,16.2s-17.3,7.9-17.3,7.9
				l6.9-38.9L486,223.9z"/>
			<path fill="#FFC07B" d="M444,259.4c0,0,7.8-16.8,18.8-24.7c11-7.9,23.2-10.9,23.2-10.9s1.7,11.9-5.3,35.6
				c-6.9,23.7-27.7,31.3-27.7,31.3S442.8,286.1,444,259.4z"/>
			<path fill="#FFCD9C" d="M447,260.9c0,0,10.6-18,15.6-22.4c5-4.3,20.1-10.5,20.1-10.5s-14.6,9.4-20.1,16.4
				C457.1,251.5,447,260.9,447,260.9z"/>
		</g>
		<g>
			<path fill="#F2992F" d="M502.5,304.7c0,0-3.4-0.6-9.5,0s-13.9,7.4-13.9,7.4l-9.5,7.9l-6.1,7.9l-3,12.3L502.5,304.7z"/>
			<path fill="#F2992F" d="M502.5,304.7c0,0,2.4,1.7,2.4,11.1c0,9.4-5.8,31.7-5.8,31.7s-7.2,10.5-12.3,16.2
				c-5,5.8-17.3,7.9-17.3,7.9l6.9-38.9L502.5,304.7z"/>
			<path fill="#FFC07B" d="M460.5,340.2c0,0,7.8-16.8,18.8-24.7c11-7.9,23.2-10.9,23.2-10.9s1.7,11.9-5.3,35.6
				c-6.9,23.7-27.7,31.3-27.7,31.3S459.3,366.9,460.5,340.2z"/>
			<path fill="#FFCD9C" d="M463.5,341.7c0,0,10.6-18,15.6-22.4c5-4.3,20.1-10.5,20.1-10.5s-14.6,9.4-20.1,16.4
				C473.6,332.3,463.5,341.7,463.5,341.7z"/>
		</g>
		<g>
			<path fill="#F2992F" d="M519.5,384.8c0,0-3.4-0.6-9.5,0s-13.9,7.4-13.9,7.4l-9.5,7.9l-6.1,7.9l-3,12.3L519.5,384.8z"/>
			<path fill="#F2992F" d="M519.5,384.8c0,0,2.4,1.7,2.4,11.1s-5.8,31.7-5.8,31.7s-7.2,10.5-12.3,16.2c-5,5.8-17.3,7.9-17.3,7.9
				l6.9-38.9L519.5,384.8z"/>
			<path fill="#FFC07B" d="M477.5,420.4c0,0,7.8-16.8,18.8-24.7c11-7.9,23.2-10.9,23.2-10.9s1.7,11.9-5.3,35.6
				c-6.9,23.7-27.7,31.3-27.7,31.3S476.3,447.1,477.5,420.4z"/>
			<path fill="#FFCD9C" d="M480.5,421.8c0,0,10.6-18,15.6-22.4c5-4.3,20.1-10.5,20.1-10.5s-14.6,9.4-20.1,16.4
				C490.6,412.5,480.5,421.8,480.5,421.8z"/>
		</g>
		<g>
			<path fill="#F2992F" d="M536.7,464c0,0-3.4-0.6-9.5,0c-6.1,0.6-13.9,7.4-13.9,7.4l-9.5,7.9l-6.1,7.9l-3,12.3L536.7,464z"/>
			<path fill="#F2992F" d="M536.7,464c0,0,2.4,1.7,2.4,11.1c0,9.4-5.8,31.7-5.8,31.7s-7.2,10.5-12.3,16.2c-5,5.8-17.3,7.9-17.3,7.9
				l6.9-38.9L536.7,464z"/>
			<path fill="#FFC07B" d="M494.7,499.5c0,0,7.8-16.8,18.8-24.7c11-7.9,23.2-10.9,23.2-10.9s1.7,11.9-5.3,35.6s-27.7,31.3-27.7,31.3
				S493.5,526.2,494.7,499.5z"/>
			<path fill="#FFCD9C" d="M497.7,501c0,0,10.6-18,15.6-22.4c5-4.3,20.1-10.5,20.1-10.5s-14.6,9.4-20.1,16.4
				C507.8,491.6,497.7,501,497.7,501z"/>
		</g>
		<g>
			<path fill="#F2992F" d="M553.2,554.9c0,0-3.4-0.6-9.5,0s-13.9,7.4-13.9,7.4l-9.5,7.9l-6.1,7.9l-3,12.3L553.2,554.9z"/>
			<path fill="#F2992F" d="M553.2,554.9c0,0,2.4,1.7,2.4,11.1s-5.8,31.7-5.8,31.7s-7.2,10.5-12.3,16.2c-5,5.8-17.3,7.9-17.3,7.9
				l6.9-38.9L553.2,554.9z"/>
			<path fill="#FFC07B" d="M511.2,590.5c0,0,7.8-16.8,18.8-24.7c11-7.9,23.2-10.9,23.2-10.9s1.7,11.9-5.3,35.6
				c-6.9,23.7-27.7,31.3-27.7,31.3S510,617.1,511.2,590.5z"/>
			<path fill="#FFCD9C" d="M514.2,591.9c0,0,10.6-18,15.6-22.4c5-4.3,20.1-10.5,20.1-10.5s-14.6,9.4-20.1,16.4
				C524.3,582.5,514.2,591.9,514.2,591.9z"/>
		</g>
		<path fill="#F29A30" d="M545.9,402.2c-15.8-134.8-50.4-212.9-50.4-212.9c-11.9-17.8-32.8-28.7-32.8-28.7s-0.9-0.1-2.3,0.1
			c1.5,1.3,19,16.6,25.5,27.7c6.8,11.5,16.9,48,22.6,63.5c5.8,15.5,16.4,83.2,16.4,83.2l12,78.7l21,144.8l13.8,73.5l10.1,2.9
			C582,635.1,561.8,537.1,545.9,402.2z"/>
		<path fill="#FFB357" d="M443.9,177.2c0,0-10.5,18-12.9,41.3s1.9,93.7,1.9,93.7l16.1,87.6l9.2,47.3l10.5,4.7c0,0-25-119.4-27-137.3
			c-1.9-17.9-6.3-88.3-5.3-98.9C437.3,204.8,443.9,177.2,443.9,177.2z"/>
	</g>
	<g>
		<path fill="#FCAA3E" d="M636.3,438.2c0,0,3.9-67.9,8-92.4c4.1-24.5,17.5-94.7,37.3-127c19.8-32.3,40.9-24,40.9-24
			s17,16.3,23.3,36.7c0,0,11.2,84.7-11.7,218.5s-31.1,233.5-31.1,233.5l-64.6-41.1C638.5,642.4,614.4,556.4,636.3,438.2z"/>
		<g>
			<path fill="#F2992F" d="M726.9,261.9c0,0-3.1-1.5-9.1-2.7c-6-1.1-15.5,3.2-15.5,3.2l-11.3,4.9l-8.1,5.9l-6.3,10.9L726.9,261.9z"
				/>
			<path fill="#F2992F" d="M726.9,261.9c0,0,1.9,2.3-0.8,11.3c-2.6,9-14.5,28.8-14.5,28.8s-9.9,8-16.3,12.1s-18.9,2.7-18.9,2.7
				l17.6-35.4L726.9,261.9z"/>
			<path fill="#FFC07B" d="M676.6,284.2c0,0,12.2-13.9,25-18.4c12.8-4.5,25.3-3.9,25.3-3.9s-1.7,11.8-15.1,32.6
				c-13.3,20.8-35.4,22.3-35.4,22.3S667.9,309.5,676.6,284.2z"/>
			<path fill="#FFCD9C" d="M679.1,286.4c0,0,15.3-14.3,21.2-17.1s22.3-4.4,22.3-4.4s-16.7,4.9-23.9,10.1
				C691.4,280.3,679.1,286.4,679.1,286.4z"/>
		</g>
		<g>
			<path fill="#F2992F" d="M720,344.1c0,0-3.1-1.5-9.1-2.7c-6-1.1-15.5,3.2-15.5,3.2l-11.3,4.9l-8.1,5.9l-6.3,10.9L720,344.1z"/>
			<path fill="#F2992F" d="M720,344.1c0,0,1.9,2.3-0.8,11.3c-2.6,9-14.5,28.8-14.5,28.8s-9.9,8-16.3,12.1
				c-6.5,4.1-18.9,2.7-18.9,2.7l17.6-35.4L720,344.1z"/>
			<path fill="#FFC07B" d="M669.7,366.4c0,0,12.2-13.9,25-18.4c12.8-4.5,25.3-3.9,25.3-3.9s-1.7,11.8-15.1,32.6
				c-13.3,20.8-35.4,22.3-35.4,22.3S661,391.6,669.7,366.4z"/>
			<path fill="#FFCD9C" d="M672.1,368.6c0,0,15.3-14.3,21.2-17.1s22.3-4.4,22.3-4.4s-16.7,4.9-23.9,10.1
				C684.5,362.5,672.1,368.6,672.1,368.6z"/>
		</g>
		<g>
			<path fill="#F2992F" d="M713.7,425.8c0,0-3.1-1.5-9.1-2.7s-15.5,3.2-15.5,3.2l-11.3,4.9l-8.1,5.9l-6.3,10.9L713.7,425.8z"/>
			<path fill="#F2992F" d="M713.7,425.8c0,0,1.9,2.3-0.8,11.3c-2.6,9-14.5,28.8-14.5,28.8s-9.9,8-16.3,12.1s-18.9,2.7-18.9,2.7
				l17.6-35.4L713.7,425.8z"/>
			<path fill="#FFC07B" d="M663.3,448.1c0,0,12.2-13.9,25-18.4c12.8-4.5,25.3-3.9,25.3-3.9s-1.7,11.8-15.1,32.6
				s-35.4,22.3-35.4,22.3S654.7,473.3,663.3,448.1z"/>
			<path fill="#FFCD9C" d="M665.8,450.3c0,0,15.3-14.3,21.2-17.1c6-2.7,22.3-4.4,22.3-4.4s-16.7,4.9-23.9,10.1
				S665.8,450.3,665.8,450.3z"/>
		</g>
		<g>
			<path fill="#F2992F" d="M707.9,506.6c0,0-3.1-1.5-9.1-2.7s-15.5,3.2-15.5,3.2l-11.3,4.9l-8.1,5.9l-6.3,10.9L707.9,506.6z"/>
			<path fill="#F2992F" d="M707.9,506.6c0,0,1.9,2.3-0.8,11.3c-2.6,9-14.5,28.8-14.5,28.8s-9.9,8-16.3,12.1
				c-6.5,4.1-18.9,2.7-18.9,2.7l17.6-35.4L707.9,506.6z"/>
			<path fill="#FFC07B" d="M657.6,528.9c0,0,12.2-13.9,25-18.4c12.8-4.5,25.3-3.9,25.3-3.9s-1.7,11.8-15.1,32.6
				c-13.3,20.8-35.4,22.3-35.4,22.3S648.9,554.1,657.6,528.9z"/>
			<path fill="#FFCD9C" d="M660,531.1c0,0,15.3-14.3,21.2-17.1c6-2.7,22.3-4.4,22.3-4.4s-16.7,4.9-23.9,10.1S660,531.1,660,531.1z"
				/>
		</g>
		<g>
			<path fill="#F2992F" d="M698.1,598.5c0,0-3.1-1.5-9.1-2.7c-6-1.1-15.5,3.2-15.5,3.2l-11.3,4.9l-8.1,5.9l-6.3,10.9L698.1,598.5z"
				/>
			<path fill="#F2992F" d="M698.1,598.5c0,0,1.9,2.3-0.8,11.3c-2.6,9-14.5,28.8-14.5,28.8s-9.9,8-16.3,12.1s-18.9,2.7-18.9,2.7
				l17.6-35.4L698.1,598.5z"/>
			<path fill="#FFC07B" d="M647.8,620.8c0,0,12.2-13.9,25-18.4c12.8-4.5,25.3-3.9,25.3-3.9s-1.7,11.8-15.1,32.6
				s-35.4,22.3-35.4,22.3S639.1,646,647.8,620.8z"/>
			<path fill="#FFCD9C" d="M650.2,623c0,0,15.3-14.3,21.2-17.1c6-2.7,22.3-4.4,22.3-4.4s-16.7,4.9-23.9,10.1S650.2,623,650.2,623z"
				/>
		</g>
		<path fill="#F29A30" d="M734.2,450c22.9-133.8,11.7-218.5,11.7-218.5c-6.4-20.4-23.3-36.7-23.3-36.7s-0.8-0.3-2.2-0.6
			c1.1,1.6,13.5,21.3,16.7,33.7c3.2,13,2.7,50.8,3.8,67.3c1.2,16.5-7.7,84.4-7.7,84.4l-10.7,78.9l-20.7,144.9l-7.5,74.4l8.9,5.6
			C703.1,683.5,711.3,583.8,734.2,450z"/>
		<path fill="#FFB357" d="M699.7,205.2c0,0-15.1,14.3-24,35.9s-24.5,90.4-24.5,90.4l-9.3,88.6l-4.5,47.9l8.7,7.5
			c0,0,9.6-121.6,12.8-139.3c3.2-17.7,18.8-86.5,22.8-96.4C685.6,229.9,699.7,205.2,699.7,205.2z"/>
	</g>
	<g>
		<path fill="#207500" d="M469.8,383.1l-3.9-8.3c0,0,2.1-3.4,5.3-3.8c3.2-0.4,14.9,2.8,24.2,6c9.2,3.2,21.7,11,21.7,11l-9.2,13.5
			C507.9,401.6,488,407.6,469.8,383.1z"/>
		<path fill="#279700" d="M385.6,415.4c0,0,3.9-16,9.6-24.2s13.5-10,13.5-10s12.4,6,22.8,17.1c10.3,11,33.4,40.2,33.4,40.2
			s13.9,20.3,18.8,29.5c0,0-11-29.2-14.6-40.9s-4.3-45.4-3.2-52.4c0,0,9.2,5.8,17.8,9.4c8.5,3.6,21.3,5.3,21.3,5.3l12.1-1.4
			c0,0,5.7,72.5,10.7,101.3c5,28.8,9.6,52.6,9.6,52.6s22.4,71.1,23.8,71.8c1.4,0.7-63.6-9.2-63.6-9.2l-12.1-8.2
			c0,0-9.2-53-12.1-66.8c-2.9-13.9-38.8-64.3-49.1-76.4C414,441,385.6,415.4,385.6,415.4z"/>
		<linearGradient id="SVGID_1_" gradientUnits="userSpaceOnUse" x1="489.2634" y1="479.965" x2="522.8536" y2="629.145">
			<stop  offset="0" style="stop-color:#279700"/>
			<stop  offset="9.503752e-02" style="stop-color:#44A721"/>
			<stop  offset="0.2714" style="stop-color:#74C159"/>
			<stop  offset="0.4429" style="stop-color:#9CD788"/>
			<stop  offset="0.6054" style="stop-color:#BBE9AC"/>
			<stop  offset="0.7568" style="stop-color:#D2F5C6"/>
			<stop  offset="0.8927" style="stop-color:#DFFCD6"/>
			<stop  offset="1" style="stop-color:#E4FFDB"/>
		</linearGradient>
		<path fill="url(#SVGID_1_)" d="M561.2,613.8c-1.4-0.7-23.8-71.8-23.8-71.8s-4.6-23.8-9.6-52.6c-1.2-6.7-2.3-15.7-3.5-25.7
			c-39.3,2.6-65.1,16.4-75.3,23c11.6,17.1,22.9,35.3,24.4,42.8c2.9,13.9,12.1,66.8,12.1,66.8l12.1,8.2
			C497.6,604.6,562.6,614.5,561.2,613.8z"/>
	</g>
	<g>
		<path fill="#207500" d="M775,382.1l1.8-9c0,0-2.9-2.8-6.1-2.4c-3.2,0.4-13.8,6.3-22.1,11.6c-8.2,5.3-18.5,15.8-18.5,15.8
			l12.2,10.9C742.4,409.1,763.2,410.2,775,382.1z"/>
		<path fill="#279700" d="M864.5,393.7c0,0-7.6-14.6-15-21.2C842,365.9,834,366,834,366s-10.7,8.8-18.1,21.9
			c-7.4,13.1-23,46.9-23,46.9s-8.7,23-11.4,33.1c0,0,3.8-30.9,4.5-43.2c0.7-12.2-6.6-45.1-9.2-51.6c0,0-7.6,7.8-15.1,13.3
			c-7.5,5.5-19.5,10.2-19.5,10.2l-12.1,1.5c0,0,11.6,71.8,13.5,101c2,29.2,3.1,53.4,3.1,53.4s-5,74.4-6.2,75.4
			c-1.2,1,59.7-24,59.7-24l9.8-10.8c0,0-3.5-53.7-4-67.8c-0.5-14.1,22.5-71.7,29.7-85.8S864.5,393.7,864.5,393.7z"/>
		
			<linearGradient id="SVGID_2_" gradientUnits="userSpaceOnUse" x1="527.8328" y1="478.2326" x2="561.423" y2="627.4126" gradientTransform="matrix(-0.9718 0.2358 0.2358 0.9718 1179.1219 -108.3521)">
			<stop  offset="0" style="stop-color:#279700"/>
			<stop  offset="9.503752e-02" style="stop-color:#44A721"/>
			<stop  offset="0.2714" style="stop-color:#74C159"/>
			<stop  offset="0.4429" style="stop-color:#9CD788"/>
			<stop  offset="0.6054" style="stop-color:#BBE9AC"/>
			<stop  offset="0.7568" style="stop-color:#D2F5C6"/>
			<stop  offset="0.8927" style="stop-color:#DFFCD6"/>
			<stop  offset="1" style="stop-color:#E4FFDB"/>
		</linearGradient>
		<path fill="url(#SVGID_2_)" d="M740.6,627.9c1.2-1,6.2-75.4,6.2-75.4s-1.1-24.2-3.1-53.4c-0.5-6.8-1.4-15.8-2.7-25.8
			c38.8-6.8,67.1,0.6,78.6,4.6c-7.3,19.3-13.9,39.7-13.6,47.4c0.5,14.1,4,67.8,4,67.8l-9.8,10.8
			C800.3,603.9,739.4,628.9,740.6,627.9z"/>
	</g>
	<g>
		<path fill="#F07D29" d="M834.8,682.7c0,0-13.5-60.9-24.1-109c-10.5-48.1-15-72.9-12.8-90.2c2.3-17.3,25.6-30.8,25.6-30.8
			s31.6-9,51.1,4.5c19.5,13.5,27.8,57.9,27.1,85.7c-0.8,27.8-3,146.6-3,146.6S857.3,739.9,834.8,682.7z"/>
		<path fill="#80A525" d="M827.7,461.2c0,0-16.9-27.1-26.1-42.9c-9.2-15.8-5.4-27.8-5.4-27.8s9.8,0.8,15.4,4.5l25.2,57.1
			c0,0-5.3-42.9-6.8-53.4c-1.5-10.5-6-34.6-3-42.9s9.8-8.3,9.8-8.3s6.8,3.8,11.3,13.5c4.5,9.8,0,85.8,0,85.8s12.8-45.2,14.3-52.7
			s3-9.8,6.8-11.3s9,13.5,8.3,21.4c0,0-18.8,44-27.1,56.8C842,474,827.7,461.2,827.7,461.2z"/>
		<path fill="#E87323" d="M898.7,689.5c0,0,2.3-118.8,3-146.6s-7.5-72.2-27.1-85.7c-9.3-6.5-21.4-7.8-31.5-7.4
			c0,0,14.3,6.3,24.1,18.8c9.8,12.5,15.3,45.5,15.3,45.5s-7.4,7.9-14.8,9.8s-31.3,2.7-31.3,2.7s10.8,2.7,23,3.7
			c12.2,1,26-10.3,26-10.3s3.1,14.1,4.2,23.1s-16.1,11-21,12c0,0,4.6,3.4,8.7,3.6c4.1,0.2,12.3-5.7,12.3-5.7s2.1,16.7,2.6,22.9
			c0.5,6.2,0,11.9,0,11.9s-20.2,7-25.1,4.3c0,0,4.1,4.7,10.2,5.2c6.1,0.5,15.1,0,15.1,0v30.5c0,0-15.5,3.5-24.3,2c0,0,3,4.5,7.4,5.2
			c4.4,0.7,14.1,0,14.1,0l2.9-1v29.2c0,0-4.6,9.9-15,11.1s-13.1,0-13.1,0s7.7,8.9,15.1,6.7c7.3-2.2,13-6.7,13-6.7v21.4
			C896.4,692.3,898.7,689.5,898.7,689.5z"/>
		<path fill="#F48940" d="M813.6,566.7c0,0-10.8-70.8-9.3-80.2c1.5-9.4,13.2-29.8,13.2-29.8l0,0c-7.1,5.3-18,15.2-19.6,26.8
			c-2.3,17.3,2.3,42.1,12.8,90.2c10.5,48.1,24.1,109,24.1,109c2.4,6,5,10.8,7.7,14.6L813.6,566.7z"/>
	</g>
	<g>
		<path fill="#F9ED32" d="M468.6,483.8c0,0-4,28.8-2.3,46.5c1.6,17.7,10.9,43.5,10.9,43.5l29.5,45.7l83,17.6
			c0,0-53.9-58.2-65.5-80.4C512.7,534.4,496,485,496,485s-9.3,6-13,5.5C479.2,490.1,468.6,483.8,468.6,483.8z"/>
		<path fill="#594A42" d="M496,485c0,0-11.3-4.2-16.5-4.8s-10.9,3.6-10.9,3.6s10.6,6.4,14.3,6.8C486.7,491,496,485,496,485z"/>
		<path fill="#EFDB25" d="M466.3,530.3c1.6,17.7,10.9,43.5,10.9,43.5l29.5,45.7l28.3,6c-7-8.3-20.3-24.5-30.2-39.8
			c-14.1-21.8-23.8-56-23.8-56c-0.6-16,1.9-39.1,1.9-39.1c-3.7-0.5-14.3-6.8-14.3-6.8S464.7,512.5,466.3,530.3z"/>
	</g>
	<g>
		<path fill="#F9ED32" d="M774.8,491.9c0,0,4,28.8,2.3,46.5c-1.6,17.7-10.9,43.5-10.9,43.5l-29.5,45.7l-83,17.6
			c0,0,53.9-58.2,65.5-80.4c11.5-22.2,28.3-71.7,28.3-71.7s9.3,6,13,5.5C764.2,498.3,774.8,491.9,774.8,491.9z"/>
		<path fill="#594A42" d="M747.5,493.2c0,0,11.3-4.2,16.5-4.8s10.9,3.6,10.9,3.6s-10.6,6.4-14.3,6.8
			C756.8,499.2,747.5,493.2,747.5,493.2z"/>
		<path fill="#EFDB25" d="M777.1,538.4c-1.6,17.7-10.9,43.5-10.9,43.5l-29.5,45.7l-28.3,6c7-8.3,20.3-24.5,30.2-39.8
			c14.1-21.8,23.8-56,23.8-56c0.6-16-1.9-39.1-1.9-39.1c3.7-0.5,14.3-6.8,14.3-6.8S778.8,520.7,777.1,538.4z"/>
	</g>
	<g>
		<path fill="#F9ED32" d="M416.7,492.2c0,0-0.5,29,3.3,46.4s16,41.9,16,41.9l34.8,41.9l84.5,7.5c0,0-60.5-51.3-74.6-72
			c-14.1-20.7-36.7-67.8-36.7-67.8s-8.5,7.1-12.2,7.1S416.7,492.2,416.7,492.2z"/>
		<path fill="#594A42" d="M444,490.2c0,0-11.8-2.8-16.9-2.8s-10.4,4.8-10.4,4.8s11.3,5,15.1,5S444,490.2,444,490.2z"/>
		<path fill="#EFDB25" d="M420,538.7c3.8,17.4,16,41.9,16,41.9l34.8,41.9l28.9,2.6c-8-7.4-23.1-21.9-34.8-35.9
			c-16.6-19.9-30.3-52.8-30.3-52.8c-2.5-15.8-2.8-39.1-2.8-39.1c-3.8,0-15.1-5-15.1-5S416.2,521.3,420,538.7z"/>
	</g>
	<g>
		<path fill="#F9ED32" d="M821.2,490.1c0,0,4,28.8,2.3,46.5c-1.6,17.7-10.9,43.5-10.9,43.5l-29.5,45.7l-83,17.6
			c0,0,53.9-58.2,65.5-80.4c11.5-22.2,28.3-71.7,28.3-71.7s9.3,6,13,5.5C810.6,496.5,821.2,490.1,821.2,490.1z"/>
		<path fill="#594A42" d="M793.9,491.4c0,0,11.3-4.2,16.5-4.8s10.9,3.6,10.9,3.6s-10.6,6.4-14.3,6.8
			C803.2,497.4,793.9,491.4,793.9,491.4z"/>
		<path fill="#EFDB25" d="M823.5,536.6c-1.6,17.7-10.9,43.5-10.9,43.5l-29.5,45.7l-28.3,6c7-8.3,20.3-24.5,30.2-39.8
			c14.1-21.8,23.8-56,23.8-56c0.6-16-1.9-39.1-1.9-39.1c3.7-0.5,14.3-6.8,14.3-6.8S825.2,518.9,823.5,536.6z"/>
	</g>
	<g>
		<path fill="#F9ED32" d="M873.2,498.6c0,0,0.5,29-3.3,46.4s-16,41.9-16,41.9l-34.8,41.9l-84.5,7.5c0,0,60.5-51.3,74.6-72
			s36.7-67.8,36.7-67.8s8.5,7.1,12.2,7.1C861.9,503.6,873.2,498.6,873.2,498.6z"/>
		<path fill="#594A42" d="M845.9,496.6c0,0,11.8-2.8,16.9-2.8s10.4,4.8,10.4,4.8s-11.3,5-15.1,5S845.9,496.6,845.9,496.6z"/>
		<path fill="#EFDB25" d="M869.9,545c-3.8,17.4-16,41.9-16,41.9l-34.8,41.9l-28.9,2.6c8-7.4,23.1-21.9,34.8-35.9
			c16.6-19.9,30.3-52.8,30.3-52.8c2.5-15.8,2.8-39.1,2.8-39.1c3.8,0,15.1-5,15.1-5S873.6,527.6,869.9,545z"/>
	</g>
	<g>
		<path fill="#F07D29" d="M567.2,607.8c0,0-13.5-60.9-24.1-109c-10.5-48.1-15-72.9-12.8-90.2c2.3-17.3,25.6-30.8,25.6-30.8
			s31.6-9,51.1,4.5c19.5,13.5,27.8,57.9,27.1,85.7s-3,146.6-3,146.6S589.7,664.9,567.2,607.8z"/>
		<path fill="#80A525" d="M560.2,386.3c0,0-16.9-27.1-26.1-42.9c-9.2-15.8-5.4-27.8-5.4-27.8s9.8,0.8,15.4,4.5l25.2,57.1
			c0,0-5.3-42.9-6.8-53.4c-1.5-10.5-6-34.6-3-42.9c3-8.3,9.8-8.3,9.8-8.3s6.8,3.8,11.3,13.5c4.5,9.8,0,85.8,0,85.8
			s12.8-45.2,14.3-52.7c1.5-7.5,3-9.8,6.8-11.3c3.8-1.5,9,13.5,8.3,21.4c0,0-18.8,44-27.1,56.8C574.4,399,560.2,386.3,560.2,386.3z"
			/>
		<path fill="#E87323" d="M631.1,614.5c0,0,2.3-118.8,3-146.6s-7.5-72.2-27.1-85.7c-9.3-6.5-21.4-7.8-31.5-7.4
			c0,0,14.3,6.3,24.1,18.8c9.8,12.5,15.3,45.5,15.3,45.5s-7.4,7.9-14.8,9.8s-31.3,2.7-31.3,2.7s10.8,2.7,23,3.7
			c12.2,1,26-10.3,26-10.3s3.1,14.1,4.2,23.1s-16.1,11-21,12c0,0,4.6,3.4,8.7,3.6c4.1,0.2,12.3-5.7,12.3-5.7s2.1,16.7,2.6,22.9
			c0.5,6.2,0,11.9,0,11.9s-20.2,7-25.1,4.3c0,0,4.1,4.7,10.2,5.2c6.1,0.5,15.1,0,15.1,0v30.5c0,0-15.5,3.5-24.3,2c0,0,3,4.5,7.4,5.2
			c4.4,0.7,14.1,0,14.1,0l2.9-1v29.2c0,0-4.6,9.9-15,11.1s-13.1,0-13.1,0s7.7,8.9,15.1,6.7c7.3-2.2,13-6.7,13-6.7v21.4
			C628.8,617.3,631.1,614.5,631.1,614.5z"/>
		<path fill="#F48940" d="M546,491.8c0,0-10.8-70.8-9.3-80.2c1.5-9.4,13.2-29.8,13.2-29.8l0,0c-7.1,5.3-18,15.2-19.6,26.8
			c-2.3,17.3,2.3,42.1,12.8,90.2c10.5,48.1,24.1,109,24.1,109c2.4,6,5,10.8,7.7,14.6L546,491.8z"/>
	</g>
	<g>
		<path fill="#DB142C" d="M654.4,504c0,0-28.6,2.9-36.8,26.2c-8.3,23.3-13.5,49.6,3.8,78.9c17.3,29.3,40.6,37.6,40.6,37.6
			s51.9-10.5,64.7-27.1s21-42.1,15-69.9c-6-27.8-21.8-41.8-36.1-45.7S663.7,501.9,654.4,504z"/>
		<path fill="#8E3233" d="M665.8,511.2c0,0-4.3,4.3-4.3,7.5c0,3.2,2.1,4.3,2.1,4.3s7.8,2.1,17.1,1.4c9.2-0.7,16-6.4,18.8-9.2
			c2.8-2.8-6.4-7.1-6.4-7.1S670.8,509.5,665.8,511.2z"/>
		<path fill="#279700" d="M678.3,511.9c0,0-12.4,0-25.2-11.7c-12.8-11.7-17.4-19.9-17.4-19.9s11.7-6.8,23.5-4.6
			c11.7,2.1,19.9,6.8,23.8,14.6C686.8,498.1,678.3,511.9,678.3,511.9z"/>
		<path fill="#8E3233" d="M673.3,516.3c0,0,0.8-20.3,3.4-30.6c2.6-10.3,14-21.3,16.8-23.1c0,0,4.6,0.7,8.9,6
			c0,0-13.9,14.9-16.4,22.4c-2.5,7.5-2.8,25.3-2.8,25.3S676.5,520.3,673.3,516.3z"/>
		<path fill="#D11333" d="M717.2,627.5c4-2.4,7.2-5.1,9.4-7.8c12.8-16.5,21-42.1,15-69.9c-6-27.8-21.8-41.8-36.1-45.7
			c-2.6-0.7-5.6-1.2-8.8-1.6c0,0,15,14.5,20.2,22.1c5.2,7.6,11.7,42.5,11.7,42.5S727,614.6,717.2,627.5L717.2,627.5z"/>
		<path fill="#E21B3D" d="M648.1,514.3c0,0-7.6,8.2-15.4,16.5c-7.7,8.3-10.1,34.1-10.1,34.1l2.3,34.5c0,0,4.6-34.8,10.6-44
			c6-9.2,16.5-29.6,16.5-29.6L648.1,514.3z"/>
	</g>
	<g>
		<path fill="#F7DEC0" d="M436,580.6c0,0,36.3,7.3,48.5,9.9c-4-0.9,41.1,10,49,11.1c7.9,1.2,42.8,3.3,42.8,3.3h17.6l7.8,7.5
			c0,0,13-3.8,19.8-3.1c6.9,0.6,13.3,1.9,38.2,5.6c24.9,3.8,71.3,6.5,88,8.2c16.7,1.7,56.4,2.5,56.4,2.5l44.8-0.5l7.9-0.2
			c0,0-3.4,64.3-7.1,85.2c0,0,6.4,54.2,7.1,70l-7.1,9.6l7.1,5.3l4.2,107.1l5.3,168.5l-437.9,13.2c0,0,0.9-79.9,0-97.4s0-36.9,0-36.9
			l-0.4-83.4l4.8-11.4l-4.8-14.9c0,0,2.3-84.3,2.6-88.6c0.4-4.4,0-26.3,0-26.3l5.6-41.2l-1.8-69.7L436,580.6z"/>
		<path fill="#EDC79D" d="M435.2,653.6h29.2l39.2-6.9c0,0-36-6.3-50.9-9.6c-6.8-1.5-13-1.8-17.9-1.7L435.2,653.6z"/>
		<path fill="#EDC79D" d="M479,916.9l-33.4-42.1c0,0,1.8-5.3,0-11.4c-1.8-6.1-17.6-36.9-17.6-36.9v0c-0.2,7.9-0.4,13.2-0.4,13.2
			l4.8,14.9l-4.8,11.4l0.3,63.2h17.6L479,916.9z"/>
		<path fill="#EDC79D" d="M860.8,902l-4.2-107.1l-7.1-5.3l7.1-9.6c-0.6-15.8-7.1-70-7.1-70c3.7-20.9,7.1-85.2,7.1-85.2l-7.9,0.2
			l-44.8,0.5c0,0-39.6-0.8-56.4-2.5c-12.6-1.3-42.2-3.2-66.7-5.6l0,0c0,0,33.8,11.2,49.4,14.5c15.6,3.3,59.1,14.9,59.1,14.9h37.4
			l-2.8,92.9l-26.6,11.4l-48.8,7h55.3h17.6v15.7l-5.4,5.3l7.9,10.5v101.8l6.7,180.1l35.4-1.1L860.8,902z"/>
		<polygon fill="#EACEB0" points="856.6,624.8 893.1,608.2 912.5,608.2 948.7,588.6 954.7,695.8 948.7,741.4 954.7,750.2 
			954.7,883.6 959.9,962.3 950.3,1052.1 866,1070.5 842.5,928.7 839,646.7 		"/>
		<polygon fill="#E5B88C" points="865.1,1065.2 866,1070.5 950.3,1052.1 901.7,1031.2 		"/>
		<polygon fill="#E5B88C" points="907,637.1 901.7,1031.2 874,1056 		"/>
	</g>
	<g>
		<polygon fill="#E8E8E8" points="618.1,836.7 598.9,808.6 582.2,831.8 586.5,1108.7 616.7,1120.1 634.2,1104.5 		"/>
		<path fill="#F4F4F4" d="M596.6,819.4l2.3-10.8c0,0-44-1.2-51.2-1.3c-7.2-0.1-56.8,2.2-56.8,2.2L467.9,837l36.4,13.8l77.9-19
			L596.6,819.4z"/>
		<path fill="#F4F4F4" d="M598.9,808.6l3.8-30.3l-114.5,3.6l2.7,27.6c0,0,41.2,7.1,41.9,7.6C533.5,817.5,598.9,808.6,598.9,808.6z"
			/>
		<path fill="#F4F4F4" d="M582.2,831.8c0,0-65,0-75.8,1.5c-10.8,1.5-38.5,3.7-38.5,3.7s-0.2,58.7,0.7,76.4
			c0.9,17.6,2.9,72.7,2.9,72.7l2.5,90.5l47.9,28.2c0,0,64.4,6.8,64.5,3.8S582.2,831.8,582.2,831.8z"/>
		<path fill="#EAEAEA" d="M471.5,986.1c0,0-2-55.1-2.9-72.7c-0.9-17.6-0.7-76.4-0.7-76.4s27.6-2.3,38.5-3.7c2-0.3,5.9-0.5,10.8-0.7
			l0,0c0,0-33.4,11-34.7,14.4s1.3,195.9,1.3,195.9l0.8,40l-10.7-6.3L471.5,986.1z"/>
		<polygon fill="#D8D8D8" points="595.9,1112.2 586.5,1108.7 582.2,831.8 598.9,808.6 592.4,835.4 		"/>
	</g>
	<g>
		<path fill="#B2D14A" d="M817.5,881.9c0,0-54.7,7.5-81.5,31s-29.1,30.7-37.2,57.7s-9.5,57-2.9,98.2c6.6,41.2,27.5,71.5,57.3,87.4
			s98.1,15.9,119.7,10s49.3-17,65.2-34.1c15.9-17.1,26.8-51.7,32.7-70.4c5.9-18.8-0.7-76.8-10.9-99.4
			c-10.1-22.6-44.8-51.2-72.4-66.2S817.5,881.9,817.5,881.9z"/>
		<path fill="#316433" d="M973,1036.6c0-1.1-0.1-2.2-0.1-3.4c0-0.6,0-1.1-0.1-1.7c-0.1-2.3-0.2-4.7-0.4-7.1c-0.2-3-0.5-6-0.8-9.1
			c-0.1-1.2-0.3-2.5-0.4-3.7c-0.1-0.6-0.1-1.2-0.2-1.8c-0.2-1.2-0.3-2.5-0.5-3.7c-2.3-17.2-6.1-33.9-10.5-43.7
			c-10.1-22.6-44.8-51.2-72.4-66.2c-0.6-0.3-1.2-0.6-1.8-1c-0.1-0.1-0.3-0.1-0.4-0.2c-0.6-0.3-1.2-0.6-1.8-0.9
			c-0.1,0-0.2-0.1-0.3-0.1c-0.6-0.3-1.1-0.5-1.7-0.8c-0.1-0.1-0.3-0.1-0.4-0.2c-0.6-0.3-1.3-0.5-1.9-0.8c-0.1-0.1-0.3-0.1-0.4-0.2
			c-0.6-0.2-1.2-0.5-1.8-0.7c-0.1,0-0.2-0.1-0.3-0.1c-0.7-0.2-1.3-0.5-2-0.7c-0.1-0.1-0.3-0.1-0.4-0.2c-0.7-0.2-1.3-0.5-2-0.7
			c0,0,0,0,0,0c-0.7-0.2-1.4-0.4-2-0.6c-0.2,0-0.3-0.1-0.5-0.1c-0.7-0.2-1.3-0.4-2-0.6c-0.1,0-0.2-0.1-0.3-0.1
			c-0.6-0.2-1.2-0.3-1.9-0.5c-0.1,0-0.3-0.1-0.4-0.1c-0.7-0.2-1.4-0.3-2-0.5c-0.1,0-0.3-0.1-0.4-0.1c-0.6-0.2-1.3-0.3-1.9-0.4
			c-0.1,0-0.2,0-0.2-0.1c-0.7-0.2-1.4-0.3-2-0.4c-0.1,0-0.3-0.1-0.4-0.1c-1.4-0.3-2.8-0.6-4.1-0.8c-0.1,0-0.3,0-0.4-0.1
			c-0.7-0.1-1.4-0.2-2-0.4c-2.5-0.4-5-0.8-7.4-1.1l0,0c-4.8-0.6-9.2-1-13-1.3c0,0,0,0,0,0c-4.5-0.3-8.2-0.4-10.6-0.5c0,0,0,0,0,0
			c-2,0-3.2,0-3.2,0s0,0-0.1,0c0,0,0,0-0.1,0c-0.1,0-0.4,0.1-0.8,0.1c0,0,0,0,0,0c-0.2,0-0.4,0.1-0.6,0.1c0,0,0,0-0.1,0
			c-0.2,0-0.5,0.1-0.8,0.1c0,0,0,0,0,0c-0.3,0-0.6,0.1-1,0.2c0,0-0.1,0-0.1,0c-0.3,0.1-0.7,0.1-1.1,0.2c0,0-0.1,0-0.1,0
			c-0.4,0.1-0.8,0.1-1.2,0.2c-1.9,0.3-4.2,0.8-6.9,1.3c-1.1,0.2-2.3,0.5-3.5,0.8c0,0,0,0,0,0c-0.6,0.1-1.2,0.3-1.8,0.4
			c0,0-0.1,0-0.1,0c-1.2,0.3-2.5,0.6-3.7,0.9c-0.1,0-0.2,0-0.3,0.1c-0.6,0.1-1.2,0.3-1.8,0.4c-0.1,0-0.1,0-0.2,0
			c-0.7,0.2-1.3,0.3-2,0.5c-0.1,0-0.2,0-0.3,0.1c-0.6,0.2-1.1,0.3-1.7,0.5c-0.1,0-0.3,0.1-0.4,0.1c-1.3,0.4-2.7,0.7-4.1,1.1
			c-0.2,0-0.3,0.1-0.5,0.1c-0.6,0.2-1.1,0.3-1.7,0.5c-0.1,0-0.3,0.1-0.4,0.1c-0.7,0.2-1.4,0.4-2.1,0.6c-0.1,0-0.3,0.1-0.4,0.1
			c-0.6,0.2-1.1,0.4-1.7,0.6c-0.2,0.1-0.4,0.1-0.6,0.2c-0.6,0.2-1.3,0.4-1.9,0.6c-0.1,0-0.1,0-0.2,0.1c-0.7,0.2-1.4,0.5-2.1,0.7
			c-0.2,0.1-0.4,0.1-0.6,0.2c-0.5,0.2-1.1,0.4-1.6,0.6c-0.2,0.1-0.4,0.1-0.6,0.2c-0.7,0.3-1.4,0.5-2.1,0.8c-0.1,0.1-0.3,0.1-0.4,0.2
			c-0.6,0.2-1.1,0.4-1.7,0.7c-0.2,0.1-0.4,0.2-0.6,0.3c-0.6,0.2-1.2,0.5-1.8,0.7c-0.1,0.1-0.2,0.1-0.4,0.2c-0.7,0.3-1.4,0.6-2.1,0.9
			c-0.2,0.1-0.4,0.2-0.6,0.3c-0.5,0.2-1,0.5-1.6,0.7c-0.2,0.1-0.4,0.2-0.6,0.3c-0.7,0.3-1.4,0.6-2,1c-0.1,0.1-0.2,0.1-0.3,0.2
			c-0.6,0.3-1.1,0.6-1.7,0.9c-0.2,0.1-0.4,0.2-0.6,0.3c-0.5,0.3-1.1,0.6-1.6,0.8c-0.1,0.1-0.3,0.1-0.4,0.2c-0.7,0.3-1.3,0.7-1.9,1.1
			c-0.2,0.1-0.3,0.2-0.5,0.3c-0.5,0.3-1,0.6-1.5,0.9c-0.2,0.1-0.4,0.2-0.5,0.3c-0.6,0.4-1.3,0.8-1.9,1.1c-0.1,0-0.1,0.1-0.2,0.1
			c-0.6,0.4-1.1,0.7-1.7,1.1c-0.2,0.1-0.4,0.2-0.5,0.4c-0.5,0.3-1,0.7-1.4,1c-0.1,0.1-0.3,0.2-0.4,0.3c-0.6,0.4-1.1,0.8-1.7,1.3
			c-0.1,0.1-0.3,0.2-0.4,0.3c-0.4,0.3-0.9,0.7-1.3,1c-0.2,0.1-0.3,0.2-0.5,0.4c-0.5,0.4-1.1,0.9-1.6,1.4
			c-26.8,23.5-29.1,30.7-37.2,57.7c-2.5,8.4-4.4,17.2-5.6,26.4c-0.2,1.9-0.4,3.7-0.6,5.6c-0.3,2.8-0.5,5.8-0.6,8.7
			c-0.1,2-0.2,4-0.2,6c-0.1,4.1,0,8.2,0.1,12.5c0.1,3.2,0.3,6.5,0.5,9.9c0.1,1.1,0.2,2.3,0.3,3.4c0.3,3.4,0.7,7,1.1,10.6
			c0.3,2.4,0.6,4.9,1,7.3c0.3,2.5,0.7,5,1.1,7.6c6.6,41.2,27.5,71.5,57.3,87.4c0.7,0.4,1.5,0.8,2.2,1.1c0.1,0,0.2,0.1,0.3,0.1
			c0.8,0.4,1.6,0.7,2.4,1.1c3.1,1.3,6.5,2.5,10.1,3.6c1,0.3,1.9,0.6,2.9,0.8c0,0,0,0,0.1,0c1,0.3,2,0.5,2.9,0.8c0.1,0,0.2,0,0.2,0.1
			c2,0.5,4,0.9,6,1.3c0.1,0,0.2,0,0.4,0.1c1,0.2,2,0.4,3.1,0.6c0.1,0,0.1,0,0.2,0c1,0.2,2,0.4,3,0.5c0.1,0,0.2,0,0.4,0.1
			c1,0.2,2,0.3,3.1,0.5c0.2,0,0.4,0.1,0.5,0.1c1,0.2,2.1,0.3,3.1,0.4c4.6,0.6,9.4,1.1,14.1,1.5l0,0c5.2,0.4,10.4,0.7,15.5,0.8
			c0,0,0,0,0,0c5.1,0.1,10,0.2,14.8,0.1c0.1,0,0.1,0,0.2,0c3.2-0.1,6.2-0.2,9.2-0.3l0,0c4.7-0.2,9.1-0.6,13-1.1l0,0
			c1.8-0.2,3.5-0.5,5.1-0.7c0,0,0,0,0,0c0.5-0.1,1-0.2,1.4-0.2c0.1,0,0.2,0,0.3-0.1c0.4-0.1,0.7-0.1,1.1-0.2c0.1,0,0.3-0.1,0.4-0.1
			c0.3-0.1,0.6-0.1,0.9-0.2c0.1,0,0.3-0.1,0.4-0.1c0.3-0.1,0.6-0.1,0.9-0.2c0.1,0,0.2-0.1,0.3-0.1c0.4-0.1,0.8-0.2,1.2-0.3
			c1.1-0.3,2.2-0.6,3.3-0.9c0.1,0,0.3-0.1,0.4-0.1c1.1-0.3,2.2-0.6,3.3-1c0.2-0.1,0.3-0.1,0.5-0.2c1.1-0.3,2.2-0.7,3.4-1.1
			c0.1,0,0.3-0.1,0.4-0.1c1.2-0.4,2.4-0.8,3.6-1.2l0,0c3.7-1.3,7.4-2.7,11.2-4.3h0c0.9-0.4,1.7-0.7,2.6-1.1c0.2-0.1,0.4-0.2,0.6-0.2
			c0.7-0.3,1.4-0.6,2-0.9c0.2-0.1,0.4-0.2,0.6-0.3c0.7-0.3,1.4-0.7,2.1-1c0.1-0.1,0.3-0.1,0.4-0.2c0.9-0.4,1.7-0.8,2.6-1.3
			c0,0,0,0,0.1,0c0.8-0.4,1.6-0.8,2.4-1.2c0.2-0.1,0.4-0.2,0.6-0.3c0.6-0.3,1.2-0.7,1.8-1c0.2-0.1,0.5-0.3,0.7-0.4
			c0.6-0.3,1.2-0.7,1.8-1.1c0.2-0.1,0.4-0.2,0.6-0.3c0.8-0.5,1.6-1,2.4-1.4c0,0,0.1-0.1,0.1-0.1c0.7-0.5,1.4-0.9,2.1-1.4
			c0.2-0.1,0.4-0.3,0.7-0.4c0.5-0.4,1.1-0.7,1.6-1.1c0.2-0.2,0.5-0.3,0.7-0.5c0.5-0.4,1-0.7,1.6-1.1c0.2-0.2,0.4-0.3,0.6-0.5
			c0.7-0.5,1.4-1.1,2.1-1.6c0,0,0.1-0.1,0.1-0.1c0.6-0.5,1.3-1,1.9-1.6c0.2-0.2,0.4-0.4,0.6-0.5c0.5-0.4,0.9-0.8,1.3-1.2
			c0.2-0.2,0.4-0.4,0.7-0.6c0.4-0.4,0.9-0.8,1.3-1.2c0.2-0.2,0.4-0.4,0.6-0.6c0.6-0.6,1.2-1.2,1.8-1.8c2.5-2.7,4.9-5.8,7.1-9.2
			c3.1-4.8,6-10.1,8.7-15.7c0.4-0.8,0.8-1.6,1.1-2.4c2.6-5.6,4.9-11.5,7.1-17.2c0.6-1.6,1.2-3.2,1.7-4.8s1.1-3.2,1.6-4.7
			c1-3.1,2-6,2.9-8.8c0.9-2.8,1.7-5.4,2.4-7.7c1-3.2,1.6-7.6,2-12.8c0.1-1.9,0.2-3.9,0.2-5.9c0-1,0-2.1,0-3.2
			C973,1038.8,973,1037.7,973,1036.6z M745.4,1142c-3.6-1.8-9.5-6.1-9.5-6.1l-8.7-10.2l-4.7-5.1c0,0,0.5-4.1-3-6.7s-2-4.5-2-4.5
			l-11.5-25.8l-6-22l-4.2-38.2l2.9-21.5c0,0,2.3-12,1.3-14s7.5-23.7,7.5-23.7l2.5-6.6l2.2-8.8c0,0,4.3-8,7.3-11l7.7-6l7.8-6.5
			c0,0,17-8.5,20.5-12.5c1-1.2,4.7-3.1,9.4-5.3c-1,1.9-1.4,3.8-1.4,3.8L753.1,923l-7.7,10c0,0-6.9,6-7.9,10s0,3.5-2,5s0,4,0.5,7.5
			s-0.5,5-1,4.9s-7.8,30.1-7.8,30.1s-3.2,9-4.2,12.5s-3.5,5.5-3.5,5.5s0,4,0,5.6s2.5,3.4,4.6,5.4s-0.6,4,0,6s0.9,3.1,0.2,5.8
			c-0.7,2.7,0.7,4.5,0.7,4.5s-1.5,9.3,0,11.4s1,16.4,2.2,21.1s3.3,21.8,3.8,24.3c0.5,2.6,0,9.9,0,11.9c0,2,4,7,8.2,12
			c4.2,5,2.3,10.5,3.3,13.3s6.5,14,6.5,14l1.7,3C748.7,1144.5,746.7,1142.6,745.4,1142z M778,1160.5l-12-3.6
			c-0.3-1.7-0.6-3.9-2.5-7.3c-3.4-6.3-4.6-4.7-5.1-9.2s-5.4-8-5.4-10.7s-4.1-17.3-4.6-20.3c-0.5-3-1.5-12.5-3.1-16.9
			c-1.6-4.4-1.5-13.4-1.9-18.3c-0.4-4.9-5-18.7-4.2-21.3s0.2-10.5,0.2-13.4s-0.5-4.6,0-8.4s0-20.2,0-21.7s1-4.5,3.5-8.5s0-3.5,0-3.5
			l2.4-11l3.1-15.9c0,0,5-14.6,4.6-16.6s5.9-11,5.9-11s-0.5-8,0-10s4-5,4.6-7.5s5.9-8,5.9-8s6.5-5,11.5-8.5
			c3.3-2.3,8.8-8.7,12.2-12.8h0c0,0,3.6-0.7,7.5-1.5c-0.5,1.4-1,2.4-1.2,2.8c-1,2-8.5,17-10.7,20s-5.3,10-5.3,10l-6,12.5l-0.5,11.5
			c0,0-5,17-3.6,24s-5.4,24-5.4,24l-4.4-3c0,0,0.9,8,0.1,11c-0.8,3,3.8,8,4.3,12s-1,14.5-1,20.1s-1.5,6.4-3,12.3s2.5,8.2,3.5,13.5
			c1,5.3,5.5,13.7,5.9,16.9s-1.4,17.2,0,20.6s0.6,5.6,2.6,17.7s7,20.9,10.5,30.9c1.2,3.6,2.5,6.6,3.7,9H778z M859.9,1138.5
			c-3,4.2-0.9,9.7-3.4,10.7c-1.6,0.6-4.3,7.7-5.9,12.4l-8.6,1h-4.5h-19H814l-8.6-1c-1.6-4.6-4.3-11.7-5.9-12.4
			c-2.4-1-0.4-6.5-3.4-10.7s-3.6-18.4-3.6-18.4s-3-8.1-3-9.6c0-1.5,0.5-9.5-0.5-13s-4.5-22-4.5-24.1s-4-13.4-2.5-17.4
			s-0.5-14-1-16.4s-1-24.6-1.9-25.7s1.4-4.9,0.4-6.9s0-8.5,0-13.5s5.5-25,5.5-27s4.5-18.5,5.5-21.5s5-3.5,5.6-6s2.9-10.5,5.9-20
			c2.5-7.9,9.2-22.5,11.3-27.1c1.7-0.2,3.8-0.3,5.6-0.3c0,4.9,0,12.7,0,16.4c0,5.5,2,12.5,2.5,16.5s0,10.5,0,10.5s-0.8,11.5-1.2,16
			c-0.3,4.5-0.7,10.2,0,13.3c0.7,3.2,0.8,19.7,0,25.2c-0.8,5.5,1.4,12,1.4,12s2.8,16.5,2.3,22s0.1,7.7,0.1,7.7v4.5l-2.6,23l2.6,24
			l7.1,66.5l1.1,11.3c0,0,6.7-24.2,6.7-28.3c0-4.2-1.1-44.8-1.5-55.5s1.5-31,0-37.1s-3-15.1-3-18.1s-3.4-14.5-2.2-16
			s-0.7-8.5,0-10.5s0-20.5,0-20.5V961c0,0-1-8-1.1-10c-0.2-2,0.5-6.5,1.1-11.5S836,929,835,923s-2.4-11-2.7-13.5s-0.2-12.5,0-15.5
			c0.1-1,0-2.7-0.2-4.4c2.9,0.5,7.3,1.4,10.4,2.1c2,4.2,8.9,19.3,11.5,27.4c3,9.5,5.3,17.5,5.9,20s4.6,3,5.6,6s5.5,19.5,5.5,21.5
			s5.5,22,5.5,27s1,11.5,0,13.5s1.4,5.7,0.4,6.9s-1.4,23.3-1.9,25.7s-2.5,12.4-1,16.4s-2.5,15.3-2.5,17.4s-3.5,20.6-4.5,24.1
			s-0.5,11.6-0.5,13c0,1.5-3,9.6-3,9.6S862.8,1134.3,859.9,1138.5z M897.5,1140.5c-0.5,4.5-1.6,2.9-5.1,9.2
			c-1.8,3.3-2.2,5.6-2.5,7.3l-12,3.6h-12.2c1.2-2.4,2.5-5.4,3.7-9c3.5-10,8.5-18.8,10.5-30.9s1.2-14.3,2.6-17.7s-0.4-17.4,0-20.6
			s4.9-11.6,5.9-16.9c1-5.3,5-7.6,3.5-13.5s-3-6.7-3-12.3s-1.5-16.1-1-20.1s5.2-9,4.3-12c-0.8-3,0.1-11,0.1-11l-4.4,3
			c0,0-6.8-17-5.4-24s-3.6-24-3.6-24l-0.5-11.5l-6-12.5c0,0-3.1-7-5.3-10s-9.7-18-10.7-20c-0.2-0.4-0.6-1.5-1.2-2.8
			c3.9,0.8,7.5,1.5,7.5,1.5c3.4,4.1,8.9,10.5,12.2,12.8c5,3.5,11.5,8.5,11.5,8.5s5.4,5.5,5.9,8s4.1,5.5,4.6,7.5s0,10,0,10
			s6.3,9,5.9,11s4.6,16.6,4.6,16.6l3.1,15.9l2.4,11c0,0-2.5-0.5,0,3.5s3.5,7,3.5,8.5s-0.5,18,0,21.7s0,5.5,0,8.4s-0.6,10.8,0.2,13.4
			s-3.8,16.3-4.2,21.3c-0.4,4.9-0.3,13.9-1.9,18.3c-1.6,4.4-2.6,13.9-3.1,16.9c-0.5,3-4.6,17.6-4.6,20.3S898,1136,897.5,1140.5z
			 M956,1061.7l-6,22l-11.5,25.8c0,0,1.5,1.9-2,4.5s-3,6.7-3,6.7l-4.7,5.1l-8.7,10.2c0,0-5.9,4.4-9.5,6.1c-1.3,0.6-3.3,2.5-5.3,4.7
			l1.7-3c0,0,5.5-11.2,6.5-14s-0.9-8.3,3.3-13.3c4.2-5,8.2-10,8.2-12c0-2-0.5-9.4,0-11.9c0.5-2.6,2.5-19.6,3.8-24.3
			s0.7-19.1,2.2-21.1s0-11.4,0-11.4s1.3-1.8,0.7-4.5s-0.5-3.9,0.2-5.8s-2.1-4,0-6s4.6-3.9,4.6-5.4s0-5.6,0-5.6s-2.5-2-3.5-5.5
			s-4.2-12.5-4.2-12.5s-7.3-30.2-7.8-30.1s-1.5-1.4-1-4.9s2.5-6,0.5-7.5s-1-1-2-5s-7.9-10-7.9-10l-7.7-10l-10.5-11.5
			c0,0-0.4-1.9-1.4-3.8c4.7,2.2,8.4,4.1,9.4,5.3c3.5,4,20.5,12.5,20.5,12.5l7.8,6.5l7.7,6c3,3,7.3,11,7.3,11l2.2,8.8l2.5,6.6
			c0,0,8.5,21.7,7.5,23.7s1.3,14,1.3,14l2.9,21.5L956,1061.7z"/>
	</g>
	<g>
		<path fill="#FCAA3E" d="M485.7,1113.5c0,0-65-3.6-88.5-7.5s-90.7-16.6-121.6-35.5s-23.1-39.1-23.1-39.1s15.6-16.3,35.1-22.4
			c0,0,81-10.8,209.2,10.9c128.1,21.7,223.6,29.4,223.6,29.4l-39.2,61.9C681.1,1111.1,598.8,1134.3,485.7,1113.5z"/>
		<g>
			<path fill="#F2992F" d="M316.8,1027c0,0-1.5,3-2.6,8.7c-1.1,5.7,3.1,14.8,3.1,14.8l4.7,10.8l5.6,7.7l10.5,6L316.8,1027z"/>
			<path fill="#F2992F" d="M316.8,1027c0,0,2.2-1.8,10.8,0.7c8.6,2.5,27.6,13.8,27.6,13.8s7.7,9.4,11.6,15.6c3.9,6.2,2.6,18,2.6,18
				l-33.9-16.7L316.8,1027z"/>
			<path fill="#FFC07B" d="M338.2,1075.2c0,0-13.3-11.7-17.6-23.9s-3.8-24.2-3.8-24.2s11.3,1.7,31.3,14.4
				c19.9,12.7,21.4,33.8,21.4,33.8S362.4,1083.4,338.2,1075.2z"/>
			<path fill="#FFCD9C" d="M340.4,1072.8c0,0-13.7-14.6-16.4-20.3s-4.2-21.3-4.2-21.3s4.7,16,9.7,22.9
				C334.5,1061,340.4,1072.8,340.4,1072.8z"/>
		</g>
		<g>
			<path fill="#F2992F" d="M395.5,1033.5c0,0-1.5,3-2.6,8.7s3.1,14.8,3.1,14.8l4.7,10.8l5.6,7.7l10.5,6L395.5,1033.5z"/>
			<path fill="#F2992F" d="M395.5,1033.5c0,0,2.2-1.8,10.8,0.7s27.6,13.8,27.6,13.8s7.7,9.4,11.6,15.6c3.9,6.2,2.6,18,2.6,18
				l-33.9-16.7L395.5,1033.5z"/>
			<path fill="#FFC07B" d="M416.9,1081.7c0,0-13.3-11.7-17.6-23.9c-4.3-12.2-3.8-24.2-3.8-24.2s11.3,1.7,31.3,14.4
				c19.9,12.7,21.4,33.8,21.4,33.8S441.1,1089.9,416.9,1081.7z"/>
			<path fill="#FFCD9C" d="M419,1079.3c0,0-13.7-14.6-16.4-20.3c-2.6-5.7-4.2-21.3-4.2-21.3s4.7,16,9.7,22.9
				C413.1,1067.5,419,1079.3,419,1079.3z"/>
		</g>
		<g>
			<path fill="#F2992F" d="M473.7,1039.5c0,0-1.5,3-2.6,8.7s3.1,14.8,3.1,14.8l4.7,10.8l5.6,7.7l10.5,6L473.7,1039.5z"/>
			<path fill="#F2992F" d="M473.7,1039.5c0,0,2.2-1.8,10.8,0.7c8.6,2.5,27.6,13.8,27.6,13.8s7.7,9.4,11.6,15.6s2.6,18,2.6,18
				l-33.9-16.7L473.7,1039.5z"/>
			<path fill="#FFC07B" d="M495.1,1087.6c0,0-13.3-11.7-17.6-23.9s-3.8-24.2-3.8-24.2s11.3,1.7,31.3,14.4s21.4,33.8,21.4,33.8
				S519.3,1095.9,495.1,1087.6z"/>
			<path fill="#FFCD9C" d="M497.2,1085.2c0,0-13.7-14.6-16.4-20.3c-2.6-5.7-4.2-21.3-4.2-21.3s4.7,16,9.7,22.9
				S497.2,1085.2,497.2,1085.2z"/>
		</g>
		<g>
			<path fill="#F2992F" d="M551,1044.9c0,0-1.5,3-2.6,8.7s3.1,14.8,3.1,14.8l4.7,10.8l5.6,7.7l10.5,6L551,1044.9z"/>
			<path fill="#F2992F" d="M551,1044.9c0,0,2.2-1.8,10.8,0.7s27.6,13.8,27.6,13.8s7.7,9.4,11.6,15.6c3.9,6.2,2.6,18,2.6,18
				l-33.9-16.7L551,1044.9z"/>
			<path fill="#FFC07B" d="M572.4,1093c0,0-13.3-11.7-17.6-23.9c-4.3-12.2-3.8-24.2-3.8-24.2s11.3,1.7,31.3,14.4
				c19.9,12.7,21.4,33.8,21.4,33.8S596.6,1101.3,572.4,1093z"/>
			<path fill="#FFCD9C" d="M574.6,1090.6c0,0-13.7-14.6-16.4-20.3c-2.6-5.7-4.2-21.3-4.2-21.3s4.7,16,9.7,22.9
				C568.7,1078.8,574.6,1090.6,574.6,1090.6z"/>
		</g>
		<g>
			<path fill="#F2992F" d="M639,1054.1c0,0-1.5,3-2.6,8.7s3.1,14.8,3.1,14.8l4.7,10.8l5.6,7.7l10.5,6L639,1054.1z"/>
			<path fill="#F2992F" d="M639,1054.1c0,0,2.2-1.8,10.8,0.7s27.6,13.8,27.6,13.8s7.7,9.4,11.6,15.6s2.6,18,2.6,18l-33.9-16.7
				L639,1054.1z"/>
			<path fill="#FFC07B" d="M660.4,1102.2c0,0-13.3-11.7-17.6-23.9c-4.3-12.2-3.8-24.2-3.8-24.2s11.3,1.7,31.3,14.4
				s21.4,33.8,21.4,33.8S684.6,1110.5,660.4,1102.2z"/>
			<path fill="#FFCD9C" d="M662.5,1099.9c0,0-13.7-14.6-16.4-20.3c-2.6-5.7-4.2-21.3-4.2-21.3s4.7,16,9.7,22.9
				S662.5,1099.9,662.5,1099.9z"/>
		</g>
		<path fill="#F29A30" d="M496.8,1019.8c-128.1-21.7-209.2-10.9-209.2-10.9c-19.5,6.1-35.1,22.4-35.1,22.4s-0.3,0.8-0.5,2.1
			c1.6-1,20.4-13,32.3-16c12.4-3.1,48.6-2.6,64.4-3.8c15.8-1.1,80.8,7.3,80.8,7.3l75.5,10.1l138.7,19.6l71.3,7l5.4-8.5
			C720.4,1049.2,624.9,1041.5,496.8,1019.8z"/>
		<path fill="#FFB357" d="M262.6,1053.2c0,0,13.7,14.5,34.4,22.9c20.8,8.5,86.6,23.4,86.6,23.4l84.8,8.8l45.9,4.2l7.2-8.3
			c0,0-116.4-9-133.4-12.1c-17-3-82.8-17.9-92.3-21.7C286.2,1066.7,262.6,1053.2,262.6,1053.2z"/>
	</g>
	<g>
		<path fill="#DB142C" d="M811.4,1056.5c0,0-27.9,2.8-36,25.6c-8.1,22.8-13.2,48.5,3.7,77.2c0.4,0.6,0.7,1.2,1.1,1.8
			c15.3,24.8,46.1,35.1,73.4,25.1c11.8-4.3,23.3-10,28.4-16.6c12.5-16.2,20.6-41.2,14.7-68.3c-5.9-27.2-21.3-40.9-35.3-44.7
			S820.5,1054.4,811.4,1056.5z"/>
		<path fill="#8E3233" d="M822.6,1063.5c0,0-4.2,4.2-4.2,7.3s2.1,4.2,2.1,4.2s7.6,2.1,16.7,1.4c9-0.7,15.6-6.3,18.4-9
			c2.8-2.8-6.3-6.9-6.3-6.9S827.5,1061.8,822.6,1063.5z"/>
		<path fill="#279700" d="M834.7,1064.2c0,0-12.2,0-24.7-11.5c-12.5-11.5-17-19.5-17-19.5s11.5-6.6,22.9-4.5s19.5,6.7,23.3,14.3
			C843.1,1050.6,834.7,1064.2,834.7,1064.2z"/>
		<path fill="#8E3233" d="M829.9,1068.4c0,0,0.8-19.9,3.4-30s13.7-20.8,16.4-22.6c0,0,4.5,0.7,8.7,5.9c0,0-13.6,14.6-16,21.9
			s-2.8,24.7-2.8,24.7S833,1072.3,829.9,1068.4z"/>
		<path fill="#D11333" d="M872.8,1177.2c3.9-2.4,7.1-4.9,9.2-7.7c12.5-16.2,20.6-41.2,14.7-68.3c-5.9-27.2-21.3-40.9-35.3-44.7
			c-2.5-0.7-5.4-1.2-8.6-1.5c0,0,14.6,14.2,19.7,21.6c5.1,7.4,11.5,41.5,11.5,41.5S882.4,1164.5,872.8,1177.2L872.8,1177.2z"/>
		<path fill="#E21B3D" d="M805.3,1066.5c0,0-7.5,8-15,16.2s-9.9,33.4-9.9,33.4l2.3,33.7c0,0,4.5-34,10.4-43
			c5.9-9,16.2-28.9,16.2-28.9L805.3,1066.5z"/>
	</g>
	<g>
		<path fill="#F9CF00" d="M695.4,1071c0,0-10,2.3-13.1,2.3s-10.8-9.8-10.8-9.8l-45.7-7.2l-52.7-13.2v43.4c0,0,7.7,8.5,8.5,14.7
			c0.8,6.2,0,13.2,0,13.2v27.1l62,2.3l12.4-7.7l0.8,7c0,0,10.8,5.4,17.6,5.4s79.2,7.7,79.2,7.7v-43.4v-26.3L695.4,1071z"/>
		<path fill="#FFDA03" d="M573.1,1043.1c0,0,38.7-16.3,46.5-19.4c7.7-3.1,24.8-10.8,24.8-10.8l30-12.4l27.3,21.3c0,0-3.9,6.6,0,10.5
			c3.9,3.9,10.8,3.1,10.8,3.1l4.6,2.3l26.3,34.1l10.1,14.7l-58.2-15.5c0,0-10,2.3-13.1,2.3s-10.8-9.8-10.8-9.8l-45.7-7.2
			L573.1,1043.1z"/>
		<path fill="#F7BC00" d="M594.8,1076.8c0,0-2.3,12.8,0,16.7s16.3,4.3,16.3,4.3s8.5,1.2,11.6-5s-6.2-15.9-6.2-15.9
			S600.2,1073.3,594.8,1076.8z"/>
		<path fill="#F7BC00" d="M670.7,1102c0,0-4.6,4.6,0,7.7c4.6,3.1,7.7,3.1,7.7,3.1s8.5-5.4,4.6-10.8
			C679.2,1096.6,670.7,1102,670.7,1102z"/>
		<path fill="#F9CF00" d="M620.2,1023.5c3.2,1.5,7.2,3.7,11,6.5c8.5,6.2,25.6,0,25.6,0s8.7-7,6.6-15.5c-0.6-2.3-1.3-5.3-2.1-8.5
			l-16.9,7C644.4,1012.9,628.2,1020.3,620.2,1023.5z"/>
		<path fill="#F7BC00" d="M737.3,1136.1c-4.6-5.4-17.8-6.2-17.8-6.2s-8.5,4.6-10.1,9.3c-0.9,2.8-0.7,8.4-0.4,12.4
			c13.4,1.3,27.5,2.8,36.2,3.7C743.4,1149.2,740.4,1139.6,737.3,1136.1z"/>
	</g>
	<path fill="#F4932A" d="M474.5,1077.5c0,0-14.3,7-19.3,25.5c-5,18.5-9.2,36.9,9.6,48.6c18.9,11.7,44-0.8,40.7-28.5
		S490.4,1074.6,474.5,1077.5z"/>
	<path fill="#ED8721" d="M415.8,1140.8c0,0,5,15.1,22.5,22.7s35.2,14.3,49.5-2.7s5.4-43.7-22.5-44.3
		C437.5,1116,415.3,1124.7,415.8,1140.8z"/>
	<path fill="#F4932A" d="M502,1110.5c0,0-14.3,7-19.3,25.5c-5,18.5-9.2,36.9,9.6,48.6c18.9,11.7,44-0.8,40.7-28.5
		S517.9,1107.7,502,1110.5z"/>
	<path fill="#E5C188" d="M754.8,1206.5l111.2,7.4h70.6c0,0-28.2,16.5-28.9,16.5c-0.8,0-111.6,0-111.6,0l-55.5-11.9L754.8,1206.5z"/>
	<polygon fill="#E5C188" points="139.8,1136.3 227.2,1149.7 288.2,1155.4 258.5,1169.8 197,1169.8 129.9,1143.8 	"/>
	<polygon fill="#E5C188" points="1186.8,1183.2 1162.7,1189.1 1149.5,1195.2 1186.8,1195.2 1214.8,1183.2 	"/>
</g>
</svg>
